<?xml version="1.0" encoding="utf-8"?>
<!-- Generator: Adobe Illustrator 14.0.0, SVG Export Plug-In . SVG Version: 6.00 Build 43363)  -->
<!DOCTYPE svg PUBLIC "-//W3C//DTD SVG 1.1//EN" "http://www.w3.org/Graphics/SVG/1.1/DTD/svg11.dtd">
<svg version="1.1" id="Layer_1" focusable="false" xmlns="http://www.w3.org/2000/svg" xmlns:xlink="http://www.w3.org/1999/xlink"
	 x="0px" y="0px" width="595.279px" height="841.891px" viewBox="0 0 595.279 841.891" enable-background="new 0 0 595.279 841.891"
	 xml:space="preserve">
<path fill="#A7DCE2" d="M297.639,132.606c-159.283,0-288.338,129.055-288.338,288.339c0,159.283,129.055,288.339,288.338,288.339
	c159.284,0,288.339-129.056,288.339-288.339C585.978,261.661,456.924,132.606,297.639,132.606z M297.639,653.477
	c-128.473,0-232.53-104.058-232.53-232.531s104.058-232.531,232.53-232.531c128.474,0,232.531,104.058,232.531,232.531
	S426.113,653.477,297.639,653.477z M369.492,532.095l-98.709-71.735c-3.604-2.675-5.697-6.86-5.697-11.278V258.173
	c0-7.673,6.278-13.952,13.952-13.952h37.204c7.674,0,13.952,6.279,13.952,13.952v164.749l77.665,56.505
	c6.278,4.534,7.558,13.254,3.023,19.532l-21.858,30.113C384.49,535.234,375.77,536.629,369.492,532.095L369.492,532.095z"/>
</svg>
