<?xml version="1.0" encoding="utf-8"?><!DOCTYPE svg PUBLIC "-//W3C//DTD SVG 1.1//EN" "http://www.w3.org/Graphics/SVG/1.1/DTD/svg11.dtd"><svg version="1.1" id="Contours" xmlns="http://www.w3.org/2000/svg" xmlns:xlink="http://www.w3.org/1999/xlink" x="0px" y="0px" width="2610.876953px" height="2610.876953px" viewBox="-0.000001 -0.000000 2610.876953 696.241699" enable-background="new 0 0 2610.876953 2610.876953" xml:space="preserve" stroke="white" fill="none" stroke-linecap='round' stroke-linejoin='round'><path class="selected"  fill="white" opacity="1.000000" stroke="white"
 	d="
M903.103591 682.789314 C903.109332 693.275813 888.950900 696.425259 878.466152 696.233570 C844.386869 695.610508 810.307585 694.987446 776.228302 694.364385 C776.062942 556.350487 775.897581 418.336588 775.732220 280.322690 C775.693457 247.970121 775.682933 215.333089 782.398948 183.685255 C796.509302 117.193126 841.627474 57.961650 901.982385 26.695216 C962.337297 -4.571218 1036.746881 -7.260250 1099.201235 19.568075 C1161.655589 46.396399 1210.931526 102.216638 1229.804621 167.516804 C1233.920805 181.758638 1236.653512 196.355598 1239.781727 210.846529 C1239.910009 368.392890 1240.038292 525.939250 1240.166574 683.485611 C1240.168823 686.246915 1240.086010 689.256850 1238.321439 691.380784 C1236.083951 694.073946 1232.096325 694.280234 1228.594983 694.271425 C1194.435224 694.185477 1160.275465 694.099529 1126.115706 694.013581 C1123.079788 694.005942 1119.834167 693.935799 1117.338202 692.207500 C1113.340982 689.439677 1112.951933 683.783684 1112.955386 678.921728 C1113.007726 605.215426 1113.060066 531.509124 1113.112407 457.802822 C1113.116187 452.479033 1105.981063 450.803990 1100.657274 450.807469 C1039.103351 450.847765 977.549431 450.888051 915.995511 450.928336 C911.906783 450.931013 907.195658 451.228504 904.746443 454.502501 C903.049651 456.770693 902.981528 459.824238 902.983079 462.656869 C903.023250 536.034351 903.063420 609.411832 903.103591 682.789314 M785.407526 685.457042 C787.253733 687.430889 790.260160 687.643537 792.961993 687.711750 C827.029627 688.571843 861.152362 687.243336 895.050002 683.737138 C895.022526 607.733842 894.995050 531.730547 894.967574 455.727251 C894.966515 452.796829 895.055270 449.603656 896.925538 447.347670 C899.279164 444.508639 903.468094 444.257534 907.155773 444.231465 C948.459747 443.939480 989.763721 443.647495 1031.067695 443.355510 C1061.182174 444.689829 1091.318516 445.530674 1121.460544 445.877593 C1121.416400 523.282808 1121.372257 600.688023 1121.328113 678.093238 C1121.326613 680.722330 1121.409248 683.593796 1123.107722 685.600611 C1125.252645 688.134922 1129.043869 688.272153 1132.363406 688.208110 C1163.105132 687.615006 1193.846858 687.021904 1224.588583 686.428802 C1226.979787 686.382668 1229.797921 686.099547 1231.001784 684.032981 C1231.615368 682.979695 1231.638724 681.696908 1231.645504 680.477953 C1232.360448 551.939545 1233.075392 423.401136 1233.790335 294.862727 C1234.010726 255.239049 1234.165226 215.069045 1224.048207 176.758076 C1210.708542 126.243640 1179.178592 80.738770 1136.568762 50.505390 C1093.958932 20.272010 1040.594004 5.540567 988.508446 9.633187 C984.121247 9.977912 979.320750 10.656281 976.375322 13.925959 C894.292198 23.965387 820.692670 85.135571 795.809797 163.997932 C783.304687 203.630884 782.437094 245.876497 782.221850 287.434918 C782.070507 316.655995 782.188939 345.877717 782.307372 375.098940 C782.716838 476.130124 783.126307 577.161308 783.535775 678.192492 C783.546166 680.756252 783.656210 683.584645 785.407526 685.457042 z"/><path class="selected"  fill="white" opacity="1.000000" stroke="white"
 	d="
M408.759955 681.614311 C408.997854 571.946964 409.235753 462.279616 409.473653 352.612268 C409.537105 323.361719 409.403079 293.118340 397.616762 266.347434 C380.863390 228.294585 339.791430 202.345225 298.231475 203.555578 C256.671520 204.765932 217.179340 233.061566 202.668916 272.024913 C193.913793 295.534139 193.832476 321.250895 193.858821 346.337448 C193.980370 462.080105 194.101919 577.822761 194.223469 693.565418 C132.427531 696.959475 70.446966 696.989368 8.647784 693.654918 C6.111417 693.518066 3.289438 693.243222 1.612032 691.335817 C0.086903 689.601563 0.007024 687.068795 0.006998 684.759325 C0.004668 462.941466 0.002334 241.123607 0.000000 19.305748 C-0.000031 16.340999 0.129455 13.044262 2.217240 10.939293 C4.328117 8.811042 7.668172 8.677334 10.665714 8.678699 C64.426186 8.703187 118.186659 8.727675 171.947131 8.752163 C178.292334 8.755053 184.996365 8.852994 190.427795 12.133417 C195.859225 15.413841 199.164994 23.089432 195.576083 28.322150 C278.736951 -3.181406 375.925690 4.866634 452.771842 49.620114 C529.617995 94.373593 584.577553 174.933316 598.214264 262.809622 C603.117035 294.403567 602.938458 326.538068 602.748421 358.509592 C602.081043 470.788196 601.413665 583.066799 600.746287 695.345403 C541.915360 695.478527 483.084433 695.611652 424.253506 695.744776 C419.447782 695.755651 413.930918 695.438620 410.981560 691.644363 C408.838393 688.887245 408.752379 685.106418 408.759954 681.614312 M586.741115 686.563390 C589.545711 686.537214 592.728885 686.340676 594.520329 684.182629 C595.937015 682.476027 596.017756 680.062630 596.030901 677.844677 C596.411798 613.570234 596.792698 549.295792 597.173599 485.021350 C597.465575 435.752124 597.757413 386.470314 596.288882 337.222114 C595.479652 310.084043 594.123643 282.854329 589.050514 256.182376 C572.881483 171.173771 517.106920 94.556567 441.178131 53.050912 C365.249342 11.545256 270.645947 5.959969 190.360755 38.242910 C192.840569 30.511538 187.277581 22.046961 180.001808 18.443250 C172.726036 14.839540 164.253175 14.876098 156.134623 14.988806 C109.200807 15.640385 62.266991 16.291962 15.333175 16.943539 C13.364494 16.970870 11.204913 17.069789 9.748684 18.394874 C8.074499 19.918290 7.956155 22.466428 7.956851 24.729985 C8.023934 242.586968 8.091016 460.443952 8.158097 678.300935 C8.158923 680.982716 8.261334 683.938959 10.077981 685.911709 C12.114972 688.123737 15.502232 688.257058 18.509204 688.234264 C71.268117 687.834330 124.027031 687.434395 176.785945 687.034461 C179.655410 687.012709 182.821578 686.877829 184.907904 684.907665 C187.190079 682.752557 187.328364 679.229527 187.311129 676.090656 C186.740252 572.132593 186.169378 468.174531 185.598504 364.216469 C185.387469 325.786372 185.659143 285.384243 204.427053 251.847957 C225.439093 214.301635 269.644805 191.105966 312.480265 195.150153 C355.315726 199.194340 394.399123 230.253511 408.012869 271.068926 C415.666701 294.015896 415.679289 318.708098 415.614947 342.897770 C415.318086 454.503274 415.021226 566.108778 414.724366 677.714282 C414.718358 679.973041 414.749572 682.368783 415.949717 684.282335 C418.124637 687.750100 422.954861 688.092046 427.048052 688.053843 C480.279073 687.557026 533.510094 687.060208 586.741115 686.563390 z"/><path class="selected"  fill="white" opacity="1.000000" stroke="white"
 	d="
M1820.386205 158.354801 C1829.593058 198.680965 1825.811294 241.099015 1815.641088 281.193062 C1808.632276 292.531679 1803.059903 304.757161 1799.099183 317.485097 C1863.007661 360.241586 1900.137467 440.440969 1890.021378 516.664820 C1879.905289 592.888672 1822.354419 661.088412 1748.524422 682.571948 C1716.702188 691.831797 1683.140047 692.874475 1650.001695 693.373647 C1575.556892 694.495028 1501.099228 693.198746 1426.657265 691.902494 C1424.997371 691.873594 1423.204110 691.799110 1421.905452 690.764909 C1420.124393 689.346534 1419.975510 686.742045 1419.975923 684.465215 C1420.008795 503.673673 1420.041667 322.882132 1420.074539 142.090591 C1420.076514 131.229347 1404.723565 129.049740 1393.965620 130.544153 C1383.207676 132.038566 1367.853034 129.845977 1367.868005 118.984743 C1367.916954 83.472695 1367.965903 47.960648 1368.014852 12.448601 C1368.017887 10.246704 1368.115131 7.802105 1369.657701 6.230853 C1371.208973 4.650741 1373.668237 4.516812 1375.882290 4.482645 C1447.147820 3.383023 1518.425856 2.283376 1589.692690 3.294907 C1619.441394 3.717148 1649.496132 4.548947 1678.294205 12.021207 C1747.495097 29.976819 1804.473257 88.655836 1820.386205 158.354799 M1381.953818 11.915199 C1380.568573 11.922355 1379.079955 11.961990 1377.963662 12.782260 C1376.381492 13.944866 1376.152321 16.178800 1376.066308 18.140309 C1374.583161 51.963033 1374.496207 85.846955 1375.805741 119.676845 C1392.513060 123.389352 1409.807373 124.447320 1426.842638 122.798992 C1427.356726 307.698334 1427.870815 492.597677 1428.384904 677.497020 C1428.391808 679.980082 1428.596223 682.862700 1430.632252 684.284048 C1431.889625 685.161817 1433.524620 685.220021 1435.057835 685.246816 C1497.312159 686.334749 1559.569582 687.422715 1621.833322 687.528233 C1668.979966 687.608133 1717.378412 686.893914 1761.240374 669.604010 C1825.971749 644.087613 1874.388752 581.224003 1882.530845 512.123035 C1890.672939 443.022067 1858.193379 370.626502 1801.165606 330.763355 C1794.352428 326.000855 1792.112643 316.654616 1793.304059 308.427751 C1794.495476 300.200885 1798.469062 292.689780 1801.899266 285.117826 C1823.988277 236.357807 1824.388256 178.237143 1802.972436 129.177727 C1781.556615 80.118312 1738.663760 40.896193 1687.889167 23.943190 C1648.163302 10.679220 1605.396818 10.761069 1563.515671 10.977394 C1502.995053 11.289996 1442.474435 11.602598 1381.953818 11.915199 z"/><path class="selected"  fill="white" opacity="1.000000" stroke="white"
 	d="
M200.523944 297.145049 C198.385806 296.796926 198.820243 293.393135 200.458650 291.975936 C202.300472 292.830632 202.318775 295.974121 200.487027 296.850208 z"/><path class="selected"  fill="white" opacity="1.000000" stroke="white"
 	d="
M599.103693 249.420258 C598.702135 248.332423 599.376732 246.706714 600.512131 246.942306 C601.005013 248.095933 601.497891 249.249558 601.990769 250.403183 C601.136588 251.459995 599.056332 250.784170 598.986357 249.427122 z"/><path class="selected"  fill="white" opacity="1.000000" stroke="white"
 	d="
M1818.460795 133.079399 C1819.591720 133.390935 1820.171337 134.925488 1819.528768 135.906891 C1818.581524 136.134240 1817.536441 135.911822 1816.763863 135.318455 C1817.291453 134.485881 1817.819044 133.653307 1818.346635 132.820732 z"/><path class="selected"  fill="white" opacity="1.000000" stroke="white"
 	d="
M562.457581 184.062432 C564.029035 184.530550 564.074254 187.250638 562.519228 187.770732 C560.959571 187.255799 560.995987 184.530159 562.568840 184.057078 z"/><path class="selected"  fill="white" opacity="1.000000" stroke="white"
 	d="
M957.376158 132.416745 C988.684270 116.819843 1027.352769 116.937995 1058.564985 132.725929 C1089.777200 148.513862 1112.784815 179.593060 1118.771963 214.054854 C1120.922860 226.435336 1120.990060 239.071028 1121.051342 251.636812 C1121.176300 277.259603 1121.301258 302.882394 1121.426217 328.505185 C1121.429278 329.132940 1121.427640 329.783697 1121.166756 330.354683 C1120.478391 331.861279 1118.463192 332.075298 1116.806789 332.072832 C1054.929858 331.980529 993.052930 331.888235 931.176002 331.795940 C923.657819 331.784726 915.929196 331.811459 908.937059 334.574288 C903.333334 334.357362 898.659371 329.767601 896.596387 324.552921 C894.533404 319.338241 894.551729 313.567318 894.598904 307.959595 C894.764079 288.325693 894.929252 268.691791 895.094426 249.057888 C895.198113 236.732842 895.308082 224.337428 897.487586 212.206175 C902.771937 182.793156 920.728439 155.879673 945.858278 139.707437 C950.002102 137.040692 954.892659 133.680332 954.702648 128.756238 C955.593818 129.976407 956.484988 131.196576 957.376158 132.416745 M903.106982 315.406002 C903.127729 318.094740 903.345074 321.191193 905.509004 322.787173 C906.991311 323.880431 908.973687 323.924415 910.815547 323.924531 C975.134520 323.928583 1039.453494 323.932635 1103.772467 323.936688 C1106.357119 323.936851 1109.254312 323.809279 1111.027020 321.928339 C1112.609393 320.249352 1112.762672 317.718870 1112.827775 315.412648 C1113.353588 296.785401 1113.879435 278.156572 1114.021166 259.522445 C1114.162856 240.893662 1113.882865 221.990493 1108.724766 204.089498 C1096.286217 160.921966 1053.276110 128.558102 1008.352250 128.562075 C963.428389 128.566048 920.424007 160.937519 907.993094 204.107250 C902.442352 223.383707 902.554238 243.772314 902.709019 263.831441 C902.841674 281.022962 902.974328 298.214482 903.106982 315.406002 z"/><path class="selected"  fill="white" opacity="1.000000" stroke="white"
 	d="
M2254.440821 195.516294 C2251.971512 195.720861 2249.080959 196.274367 2248.033767 198.519969 C2238.350757 197.801119 2228.669530 200.018092 2219.471301 203.127769 C2181.431175 215.988123 2149.160942 245.028644 2132.375118 281.507075 C2115.589294 317.985506 2114.525330 361.385826 2129.503518 398.642956 C2125.700358 400.852613 2121.919292 395.504303 2121.261137 391.155343 C2120.602981 386.806384 2119.525404 381.100244 2115.154696 380.606757 C2117.935575 379.453316 2117.714554 375.501895 2117.095783 372.555569 C2109.401266 335.917491 2115.638630 296.528233 2134.276280 264.059904 C2152.913929 231.591576 2183.781620 206.340754 2219.299730 194.507828 C2227.843487 191.661459 2236.683108 189.544903 2244.770607 185.583850 C2254.720201 185.887339 2264.680146 185.226458 2274.630120 185.517225 C2324.238668 186.966928 2372.454180 213.679795 2399.989722 254.970274 C2427.525263 296.260753 2433.654581 351.039804 2415.925855 397.394976 C2398.197129 443.750147 2357.077955 480.458819 2309.016628 492.836964 C2260.955301 505.215110 2207.219440 492.936255 2169.304206 460.912128 C2170.003091 459.611865 2170.701975 458.311601 2171.400860 457.011338 C2195.665797 473.835861 2222.480481 491.407503 2251.938552 489.389129 C2254.676992 489.201501 2257.602331 488.879003 2260.012499 490.192529 C2263.457283 492.069929 2267.572171 492.144456 2271.493289 492.017983 C2324.149234 490.319609 2374.760185 458.289095 2398.833296 411.427401 C2422.906408 364.565707 2419.467391 304.769425 2390.180537 260.976581 C2360.893682 217.183737 2306.944290 191.166718 2254.440821 195.516295 z"/><path class="selected"  fill="white" opacity="1.000000" stroke="white"
 	d="
M2168.410482 455.435314 C2168.487300 453.086109 2165.531172 451.248021 2163.458291 452.356097 C2161.385411 453.464173 2161.271644 456.943299 2163.267706 458.184428 C2165.263768 459.425557 2168.333663 457.784519 2168.410482 455.435314 z"/><path class="selected"  fill="white" opacity="1.000000" stroke="white"
 	d="
M2125.867656 403.445774 C2126.191333 400.898505 2130.338121 400.078450 2131.606997 402.310780 C2131.074395 403.967398 2130.344417 405.835868 2128.702531 406.412286 C2127.060646 406.988704 2124.992685 404.726005 2126.309027 403.587898 z"/><path class="selected"  fill="white" opacity="1.000000" stroke="white"
 	d="
M1945.035372 419.467010 C1943.069334 419.843423 1942.762073 416.710129 1943.447706 414.829465 C1945.411584 415.231351 1946.430802 417.959200 1945.211607 419.550395 z"/><path class="selected"  fill="white" opacity="1.000000" stroke="white"
 	d="
M2595.725116 383.615406 C2596.485171 384.174916 2597.245225 384.734427 2598.005279 385.293938 C2597.350388 386.858154 2595.050837 387.415049 2593.752848 386.323771 C2594.284664 385.490193 2594.816482 384.656614 2595.348301 383.823035 z"/><path class="selected"  fill="white" opacity="1.000000" stroke="white"
 	d="
M1588.418342 399.980981 C1594.142443 404.321768 1601.923868 404.397642 1609.106883 404.287814 C1626.377869 404.023742 1643.648854 403.759669 1660.919840 403.495596 C1680.627069 403.194273 1700.841851 402.973257 1719.380870 409.664329 C1754.875760 422.475088 1778.311848 462.024117 1773.301927 499.426034 C1768.292006 536.827951 1735.896881 568.572353 1698.502297 573.636721 C1690.307747 574.746514 1682.006260 574.705736 1673.737011 574.662976 C1628.833493 574.430781 1583.929975 574.198586 1539.026457 573.966391 C1539.015474 519.369259 1539.004492 464.772127 1538.993510 410.174995 C1538.993041 407.844329 1539.741964 404.714348 1542.072449 404.743371 C1553.480316 404.885457 1564.888182 405.027540 1576.296048 405.169624 C1581.020408 405.228465 1586.956277 404.473802 1588.418345 399.980985 M1549.864168 412.789188 C1548.826281 412.806992 1547.739744 412.837327 1546.834107 413.344622 C1544.865450 414.447371 1544.652698 417.146576 1544.680829 419.402872 C1545.274121 466.986186 1545.867411 514.569500 1546.460700 562.152814 C1546.482050 563.865096 1546.616698 565.819631 1547.963593 566.877097 C1548.966665 567.664623 1550.347856 567.700367 1551.623139 567.701332 C1586.798982 567.727935 1621.974825 567.754538 1657.150667 567.781141 C1678.849082 567.797552 1701.317485 567.655982 1721.078228 558.693030 C1747.571535 546.676371 1765.827309 518.385729 1765.860610 489.294590 C1765.893911 460.203451 1747.702956 431.871087 1721.237232 419.793799 C1700.632402 410.391050 1677.110259 410.606481 1654.464738 410.994929 C1619.597882 411.593016 1584.731025 412.191102 1549.864168 412.789188 z"/><path class="selected"  fill="white" opacity="1.000000" stroke="white"
 	d="
M2560.255467 164.005345 C2574.499928 187.260280 2585.963373 212.216980 2594.323883 238.174610 C2600.554786 257.520255 2605.065417 277.419619 2607.785155 297.561147 C2609.991924 313.903794 2611.020653 330.405394 2610.860721 346.895584 C2609.588551 478.065208 2526.104364 604.910509 2406.133052 657.957399 C2286.161740 711.004288 2136.154432 687.400314 2038.271219 600.073543 C1940.388006 512.746773 1899.892290 366.392965 1938.963869 241.171162 C1978.035448 115.949359 2094.573354 18.593021 2224.748931 2.424921 C2354.924507 -13.743179 2491.737919 52.146354 2560.255467 164.005345 M2572.271829 482.248755 C2621.443644 374.406079 2607.606404 240.445392 2537.429137 144.930674 C2467.251869 49.415956 2343.548410 -3.823023 2225.939142 10.872908 C2108.329875 25.568840 2001.530475 107.610433 1957.014210 217.456745 C1913.693652 324.352584 1930.764243 453.478535 2000.374584 545.444786 C2069.984926 637.411037 2189.624749 688.901126 2304.267262 676.232850 C2418.909775 663.564575 2524.420770 587.194776 2572.271829 482.248755 z"/><path class="selected"  fill="white" opacity="1.000000" stroke="white"
 	d="
M1538.836706 124.614962 C1561.823722 121.685508 1585.047396 120.898606 1608.216272 121.331945 C1621.880156 121.587512 1635.699034 122.292916 1648.791156 126.212529 C1685.470690 137.193905 1711.924567 175.525891 1709.179139 213.715436 C1706.433710 251.904982 1674.768861 286.058840 1636.895732 291.680664 C1627.781336 293.033594 1618.519529 292.895821 1609.306344 292.755022 C1586.804757 292.411144 1564.303169 292.067266 1541.801582 291.723387 C1540.931563 291.710092 1539.935747 291.636665 1539.408475 290.944499 C1539.029616 290.447159 1539.012984 289.772203 1539.012317 289.146998 C1538.953780 234.302986 1538.895243 179.458974 1538.836706 124.614962 M1662.082905 274.026904 C1685.795753 260.940814 1701.417164 234.354447 1701.307034 207.270637 C1701.196904 180.186827 1685.359798 153.728379 1661.541313 140.835564 C1643.088537 130.847178 1621.414324 128.934720 1600.435383 128.538670 C1583.238373 128.214017 1566.024733 128.771899 1548.884833 130.209388 C1547.937360 130.288850 1546.897587 130.414225 1546.251553 131.111834 C1545.620071 131.793738 1545.561154 132.811682 1545.537305 133.740763 C1544.234175 184.511710 1544.903236 235.333246 1547.542476 286.052291 C1586.253147 283.167667 1628.096634 292.782449 1662.082905 274.026903 z"/></svg>
