<?xml version="1.0" encoding="utf-8"?>
<!-- Generator: Adobe Illustrator 14.0.0, SVG Export Plug-In . SVG Version: 6.00 Build 43363)  -->
<!DOCTYPE svg PUBLIC "-//W3C//DTD SVG 1.1//EN" "http://www.w3.org/Graphics/SVG/1.1/DTD/svg11.dtd">
<svg version="1.1" id="Layer_1" xmlns="http://www.w3.org/2000/svg" xmlns:xlink="http://www.w3.org/1999/xlink" x="0px" y="0px"
	 width="841.89px" height="595.28px" viewBox="0 0 841.89 595.28" enable-background="new 0 0 841.89 595.28" xml:space="preserve">
<g id="XMLID_1_">
	<g>
		<path fill="#50C9F0" d="M691.99,263.34c6.359,16.99,5.83,36.46-1.45,53.08c-11.19,25.54-38.69,42.99-66.56,42.23
			c-27.87-0.761-54.391-19.681-64.171-45.79c-9.779-26.101-2.229-57.791,18.28-76.68c20.51-18.88,52.71-23.8,77.93-11.9
			C672.43,232.02,685.62,246.35,691.99,263.34z M648.68,311.49c8.75-8.141,12.41-21.34,9.09-32.82
			c-3.319-11.48-13.46-20.7-25.199-22.91c-11.74-2.21-24.54,2.69-31.811,12.17c-3.92,5.13-6.27,11.45-6.64,17.89
			c-0.15,2.57,0.01,5.15,0.47,7.68c2.01,11.05,10.17,20.77,20.7,24.66C626.49,322.31,639.93,319.62,648.68,311.49z"/>
		<path fill="#50C9F0" d="M507.39,284.38c13.36,8.93,20.58,26.19,17.57,41.97c-3.02,15.78-16.1,29.17-31.81,32.54
			c-5.631,1.21-11.44,1.23-17.2,1.23c-15.03,0-30.05-0.07-45.07-0.15c-0.32,0-0.66-0.01-0.89-0.22c-0.26-0.24-0.28-0.64-0.28-0.99
			c-0.04-38.88-0.09-77.76-0.13-116.64l-0.04-23.54c13.33-0.13,15.87-0.19,29.2-0.32c8.279-0.08,16.71-0.14,24.63,2.28
			c11.28,3.45,20.87,12.08,25.47,22.95c4.601,10.87,4.12,23.76-1.26,34.27C506.47,279.92,505.37,283.02,507.39,284.38z
			 M500.56,325.53c2.12-4.87,1.91-10.69-0.55-15.4c-1.33-2.55-3.31-4.78-5.75-6.3c-4.76-2.97-10.71-3.021-16.31-2.97
			c-8.22,0.069-16.431,0.13-24.641,0.199c-0.06,10.66-0.119,21.33-0.18,31.99c-0.01,1.12-0.02,2.24-0.02,3.36
			c8.35-0.22,16.699-0.23,25.05-0.03c3.6,0.09,7.28,0.21,10.75-0.75C494.04,334.22,498.44,330.41,500.56,325.53z M488.55,260.75
			c0.49-7.47-4.399-14.99-11.439-17.55c-3.32-1.2-6.9-1.37-10.42-1.4c-4.54-0.05-9.08,0.1-13.61,0.44c-0.061,0.2-0.03,0.41,0.05,0.6
			c0.021,9.31,0.04,23.81,0.061,33.11c0.01,0.39,0.029,0.84,0.35,1.08c0.21,0.16,0.5,0.17,0.77,0.17
			c4.08,0.04,8.171,0.08,12.25,0.12c2.82,0.03,5.671,0.06,8.421-0.58C482.27,275.04,488.07,268.23,488.55,260.75z"/>
		<path fill="#50C9F0" d="M388.53,257.92c0.7,4.7,0.68,9.48,0.67,14.23c-0.1,29.291-0.2,58.581-0.3,87.87
			c-7.77,0.15-15.54,0.301-23.3,0.45c-0.15-17.01-0.17-34.02-0.07-51.029c-14.55-0.101-29.1-0.12-43.66-0.08
			c-1.31,0-2.87,0.149-3.49,1.3c-0.03,16.45-0.06,32.899-0.08,49.35c-7.27,0.15-14.54,0.3-21.81,0.45c-0.47,0.01-0.99,0-1.36-0.3
			c-0.45-0.37-0.48-1.04-0.48-1.62c-0.06-28.07-0.11-56.14-0.17-84.21c-0.01-5.79-0.02-11.62,0.99-17.32
			c0.85-4.83,2.43-9.53,4.69-13.88c9.11-17.51,30.1-27.98,49.56-24.72C369.18,221.67,385.62,238.4,388.53,257.92z M365.5,284.23
			c0.02-4.67,0.05-9.34,0.01-14.01c-0.03-3.9-0.12-7.84-1.16-11.6c-2.71-9.72-12.37-17.05-22.46-17.05
			c-10.1,0-19.75,7.34-22.46,17.06c-0.98,3.54-1.12,7.25-1.17,10.92c-0.06,4.96,0.01,9.93,0.09,14.89c1.7,1.2,3.93,1.24,6.01,1.23
			c13.24-0.02,26.48-0.05,39.72-0.07c0.41,0,0.87-0.03,1.15-0.33C365.48,285,365.49,284.6,365.5,284.23z"/>
		<path fill="#50C9F0" d="M253.97,267.59c1.99,8.92,1.98,18.14,1.95,27.28c-0.05,21.729-0.11,43.45-0.17,65.18
			c-12.07,0.13-24.15,0.25-36.22,0.38c-0.66,0.011-1.45-0.05-1.78-0.62c-0.18-0.29-0.18-0.649-0.18-0.989
			c0.04-23.82,0.08-47.63,0.13-71.44c0-4.53,0-9.13-1.29-13.46c-2.58-8.69-10.65-15.48-19.65-16.54s-18.43,3.67-22.96,11.52
			c-4.27,7.41-4.16,16.47-4,25.02c0.41,22.1,0.39,44.2-0.08,66.29c-12.03,0.05-24.06,0.1-36.1,0.15c-0.33,0-0.7-0.011-0.97-0.21
			c-0.38-0.29-0.42-0.851-0.42-1.33c0.01-46.4,0.01-92.8,0.02-139.21c10.7-0.14,21.4-0.28,32.1-0.43c1.61-0.02,3.32-0.02,4.71,0.79
			c1.4,0.81,1.3,2.85,1.42,4.09c16.52-6.79,36.02-5.9,51.86,2.36C238.18,234.68,250.07,250.15,253.97,267.59z"/>
		<path fill="#1C75BC" d="M652.45,304.81c5.97-9.5,6.29-22.28,0.8-32.069c-5.5-9.79-16.57-16.18-27.8-16.03
			c-11.22,0.15-22.12,6.82-27.36,16.75c-4.99,9.46-4.68,21.51,0.79,30.7c5.47,9.2,15.91,15.22,26.601,15.35
			C636.18,319.64,646.76,313.87,652.45,304.81z M615.29,318.16c-10.53-3.891-18.69-13.61-20.7-24.66c-0.46-2.53-0.62-5.11-0.47-7.68
			c0.37-6.44,2.72-12.76,6.64-17.89c7.271-9.48,20.07-14.38,31.811-12.17c11.739,2.21,21.88,11.43,25.199,22.91
			c3.32,11.48-0.34,24.68-9.09,32.82C639.93,319.62,626.49,322.31,615.29,318.16z"/>
		<path fill="#1C75BC" d="M646.68,219.37c26.28,7.9,46.88,32.09,50.511,59.28c3.63,27.19-9.91,55.93-33.19,70.45
			c-23.28,14.521-55.04,14.03-77.87-1.189c-16.32-10.891-27.83-28.73-31.01-48.08c-3.19-19.36,1.99-39.95,13.95-55.49
			c11.97-15.55,30.55-25.82,50.069-27.69C628.38,215.77,637.79,216.7,646.68,219.37z M656.02,224.28
			c-25.22-11.9-57.42-6.98-77.93,11.9c-20.51,18.89-28.06,50.58-18.28,76.68c9.78,26.109,36.301,45.029,64.171,45.79
			c27.869,0.76,55.369-16.69,66.56-42.23c7.28-16.62,7.81-36.09,1.45-53.08C685.62,246.35,672.43,232.02,656.02,224.28z"/>
		<path fill="#1C75BC" d="M489.11,334.33c6.949-2.03,12.08-9.11,11.83-16.35c-0.221-6.511-4.721-12.69-10.891-14.771
			c-3.35-1.12-6.96-1.09-10.5-1.04c-8.43,0.1-16.859,0.21-25.3,0.311c0.06,10.869,0.11,21.75,0.17,32.619
			c8.43,0.04,16.86,0.07,25.29,0.101C482.87,335.21,486.08,335.22,489.11,334.33z M453.13,333.05c0.061-10.66,0.12-21.33,0.18-31.99
			c8.21-0.069,16.421-0.13,24.641-0.199c5.6-0.051,11.55,0,16.31,2.97c2.44,1.52,4.42,3.75,5.75,6.3c2.46,4.71,2.67,10.53,0.55,15.4
			c-2.119,4.88-6.52,8.689-11.649,10.1c-3.47,0.96-7.15,0.84-10.75,0.75c-8.351-0.2-16.7-0.189-25.05,0.03
			C453.11,335.29,453.12,334.17,453.13,333.05z"/>
		<path fill="#1C75BC" d="M454.21,243.02c0,0.1,0,0.19,0,0.29c-0.2,0-0.4,0.02-0.6,0.03c-0.221-0.09-0.391-0.28-0.48-0.5
			c0-0.02,0-0.03,0-0.04L454.21,243.02z"/>
		<path fill="#1C75BC" d="M466.32,242.96c-4.04-0.03-8.08,0.09-12.11,0.35c0-0.1,0-0.19,0-0.29l-1.08-0.22c0,0.01,0,0.02,0,0.04
			c-0.08-0.19-0.11-0.4-0.05-0.6c4.53-0.34,9.07-0.49,13.61-0.44c3.52,0.03,7.1,0.2,10.42,1.4c7.04,2.56,11.93,10.08,11.439,17.55
			c-0.479,7.48-6.28,14.29-13.569,15.99c-2.75,0.64-5.601,0.61-8.421,0.58c-4.079-0.04-8.17-0.08-12.25-0.12
			c-0.27,0-0.56-0.01-0.77-0.17c-0.32-0.24-0.34-0.69-0.35-1.08c-0.021-9.3-0.04-23.8-0.061-33.11c0.09,0.22,0.26,0.41,0.48,0.5
			c0.199-0.01,0.399-0.03,0.6-0.03c0.06,10.8,0.13,22,0.2,32.79c4.229,0.01,8.46,0.02,12.689,0.04c2.62,0,5.271,0.01,7.82-0.61
			c6.71-1.63,12.01-7.94,12.45-14.84c0.439-6.9-4.021-13.83-10.47-16.29C473.55,243.12,469.89,242.98,466.32,242.96z"/>
		<path fill="#1C75BC" d="M507.39,284.38c-2.02-1.36-0.92-4.46,0.19-6.62c5.38-10.51,5.86-23.4,1.26-34.27
			c-4.6-10.87-14.189-19.5-25.47-22.95c-7.92-2.42-16.351-2.36-24.63-2.28c-13.33,0.13-15.87,0.19-29.2,0.32l0.04,23.54
			c0.04,38.88,0.09,77.76,0.13,116.64c0,0.351,0.021,0.75,0.28,0.99c0.229,0.21,0.569,0.22,0.89,0.22
			c15.021,0.08,30.04,0.15,45.07,0.15c5.76,0,11.569-0.021,17.2-1.23c15.71-3.37,28.79-16.76,31.81-32.54
			C527.97,310.57,520.75,293.31,507.39,284.38z M506.77,282.68c13.811,8.49,21.87,25.48,19.721,41.55
			c-2.15,16.069-14.4,30.329-29.96,34.89c-7.87,2.31-16.21,2.27-24.41,2.22c-14.05-0.1-28.101-0.189-42.15-0.28
			c-1.27-0.01-1.66-1.71-1.66-2.97c0-38.16,0.011-76.32,0.011-114.47l-0.34-26.52c5.27,0.12,45.529-1.44,53.88,1.61
			c12.89,3.18,23.779,13.19,28.46,25.61C515,256.75,513.5,271.24,506.77,282.68z"/>
		<path fill="#1C75BC" d="M320,284c0.18,0.2,0.48,0.21,0.75,0.21c13.96-0.01,27.92-0.03,41.87-0.04c0.43,0,0.93-0.04,1.18-0.39
			c0.15-0.21,0.16-0.49,0.16-0.75c0.08-3.94,0.16-7.89,0.23-11.83c0.08-3.96,0.15-7.98-0.82-11.82
			c-2.43-9.57-11.95-16.85-21.82-16.69c-9.88,0.16-19.15,7.75-21.27,17.4c-0.73,3.31-0.68,6.74-0.64,10.13
			c0.06,4.37,0.12,8.74,0.18,13.11C319.83,283.56,319.84,283.83,320,284z M365.51,270.22c0.04,4.67,0.01,9.34-0.01,14.01
			c-0.01,0.37-0.02,0.77-0.27,1.04c-0.28,0.3-0.74,0.33-1.15,0.33c-13.24,0.02-26.48,0.05-39.72,0.07
			c-2.08,0.01-4.31-0.03-6.01-1.23c-0.08-4.96-0.15-9.93-0.09-14.89c0.05-3.67,0.19-7.38,1.17-10.92
			c2.71-9.72,12.36-17.06,22.46-17.06c10.09,0,19.75,7.33,22.46,17.05C365.39,262.38,365.48,266.32,365.51,270.22z"/>
		<path fill="#1C75BC" d="M293.39,274.64c-0.01-6.61-0.01-13.27,1.34-19.73c2.98-14.4,12.95-27.17,26.18-33.57
			c13.24-6.4,29.44-6.28,42.57,0.32c13.14,6.59,22.92,19.51,25.69,33.95c1.08,5.65,1.15,11.45,1.18,17.21
			c0.03,5.96,0.02,11.91,0.02,17.87c-0.01,22.88-0.02,45.75-0.03,68.63c0,0.569-0.02,1.189-0.4,1.609
			c-0.43,0.48-1.16,0.511-1.8,0.511c-7.14,0.01-14.28,0.01-21.42,0.02c-0.64,0-1.32-0.02-1.83-0.39c-0.76-0.561-0.83-1.65-0.83-2.59
			c-0.01-15.99-0.02-31.971-0.04-47.961c-14.21-0.01-28.43-0.01-42.65-0.02c-0.49,0-1.04,0.03-1.36,0.39
			c-0.27,0.311-0.28,0.761-0.28,1.181c0.02,15.84,0.03,31.68,0.05,47.529c0,1.5-1.98,2.03-3.48,2.08
			c-7.6,0.261-15.22,0.141-22.81-0.359C293.45,332.43,293.42,303.53,293.39,274.64z M349.72,218.41
			c-19.46-3.26-40.45,7.21-49.56,24.72c-2.26,4.35-3.84,9.05-4.69,13.88c-1.01,5.7-1,11.53-0.99,17.32
			c0.06,28.07,0.11,56.14,0.17,84.21c0,0.58,0.03,1.25,0.48,1.62c0.37,0.3,0.89,0.31,1.36,0.3c7.27-0.15,14.54-0.3,21.81-0.45
			c0.02-16.45,0.05-32.899,0.08-49.35c0.62-1.15,2.18-1.3,3.49-1.3c14.56-0.04,29.11-0.021,43.66,0.08
			c-0.1,17.01-0.08,34.02,0.07,51.029c7.76-0.149,15.53-0.3,23.3-0.45c0.1-29.289,0.2-58.579,0.3-87.87
			c0.01-4.75,0.03-9.53-0.67-14.23C385.62,238.4,369.18,221.67,349.72,218.41z"/>
		<path fill="#1C75BC" d="M169.72,360.21c0.47-22.09,0.49-44.19,0.08-66.29c-0.16-8.55-0.27-17.61,4-25.02
			c4.53-7.85,13.96-12.58,22.96-11.52s17.07,7.85,19.65,16.54c1.29,4.33,1.29,8.93,1.29,13.46c-0.05,23.811-0.09,47.62-0.13,71.44
			c0,0.34,0,0.699,0.18,0.989c0.33,0.57,1.12,0.631,1.78,0.62c12.07-0.13,24.15-0.25,36.22-0.38c0.06-21.729,0.12-43.45,0.17-65.18
			c0.03-9.14,0.04-18.36-1.95-27.28c-3.9-17.44-15.79-32.91-31.63-41.17c-15.84-8.26-35.34-9.15-51.86-2.36
			c-0.12-1.24-0.02-3.28-1.42-4.09c-1.39-0.81-3.1-0.81-4.71-0.79c-10.7,0.15-21.4,0.29-32.1,0.43
			c-0.01,46.41-0.01,92.81-0.02,139.21c0,0.479,0.04,1.04,0.42,1.33c0.27,0.199,0.64,0.21,0.97,0.21
			C145.66,360.31,157.69,360.26,169.72,360.21z M216.45,358.47c0.06-23.55,0.11-47.109,0.17-70.67c0.01-4.77,0-9.63-1.5-14.15
			c-3.08-9.27-12.87-15.81-22.62-15.18c-9.75,0.63-18.59,8.31-20.65,17.86c-0.7,3.2-0.69,6.5-0.69,9.78
			c0.05,24.581,0.1,49.16,0.15,73.75c0.01,1.25-1.65,1.689-2.9,1.729c-12.53,0.41-25.07,0.29-37.58-0.34
			c-0.02-46.88-0.03-93.76-0.04-140.65c0-0.64,0.02-1.34,0.45-1.82c0.49-0.54,1.32-0.58,2.05-0.58c12.44,0,21.09,0.03,33.52,0.03
			l1.49-0.04c2.24,0.4,3.13,2.39,3.33,4.27c17.33-6.75,37.25-5.19,53.4,4.04c16.15,9.23,27.78,25.99,30.76,44.36
			c1.11,6.8,1.08,13.74,1.05,20.64c-0.09,23.36-0.19,46.73-0.28,70.1c-12.38,0.19-24.76,0.221-37.13,0.08
			c-0.78-0.01-1.62-0.04-2.2-0.55C216.5,360.51,216.45,359.43,216.45,358.47z"/>
	</g>
	<g>
	</g>
</g>
</svg>
