<?xml version="1.0" encoding="utf-8"?>
<!-- Generator: Adobe Illustrator 14.0.0, SVG Export Plug-In . SVG Version: 6.00 Build 43363)  -->
<!DOCTYPE svg PUBLIC "-//W3C//DTD SVG 1.1//EN" "http://www.w3.org/Graphics/SVG/1.1/DTD/svg11.dtd">
<svg version="1.1" id="Layer_1" xmlns="http://www.w3.org/2000/svg" xmlns:xlink="http://www.w3.org/1999/xlink" x="0px" y="0px"
	 width="576.541px" height="207.247px" viewBox="0 0 576.541 207.247" enable-background="new 0 0 576.541 207.247"
	 xml:space="preserve">
<g id="LINE_233_">
	
		<image overflow="visible" opacity="0.44" width="1991" height="614" xlink:href="B82260C6.png"  transform="matrix(0.24 0 0 0.24 40.7676 25.7539)">
	</image>
	<g>
		<g>
			<g>
				<g>
					<polygon fill="#A8DDE3" points="499.805,84.009 500.648,95.296 499.805,106.414 497.301,116.021 493.116,124.125 
						483.57,138.195 487.748,130.091 490.252,120.484 491.089,109.367 490.252,98.079 487.748,87.874 483.57,78.763 477.726,70.734 
						470.392,64.012 461.757,58.801 451.837,55.106 440.638,52.922 429.371,52.405 419.424,53.718 410.763,56.848 403.394,61.808 
						397.509,68.428 407.074,54.351 412.939,47.737 420.308,42.777 428.977,39.647 438.938,38.334 450.184,38.852 461.403,41.036 
						471.323,44.73 479.944,49.942 487.271,56.664 493.116,64.693 497.301,73.803 					"/>
					<path fill="#156492" d="M490.252,98.079l0.837,11.288l-0.837,11.118l-2.504,9.607l-4.178,8.104l-5.845,6.593l-7.334,4.933
						l-8.635,3.123l-9.92,1.299l-11.199-0.517l-11.287-2.191l-9.975-3.688l-8.661-5.191l-7.362-6.702l-5.857-8.001l-4.191-9.104
						l-2.511-10.213l-0.837-11.314l0.837-11.09l2.518-9.601l4.198-8.103l5.885-6.62l7.369-4.96l8.661-3.129l9.947-1.313
						l11.267,0.517l11.199,2.184l9.92,3.695l8.635,5.211l7.334,6.722l5.845,8.029l4.178,9.11L490.252,98.079z M463.778,105.815
						l-0.395-6.824l-1.191-6.212l-1.979-5.6l-2.776-4.98l-3.429-4.171l-3.946-3.157l-4.464-2.143l-4.96-1.136l-5.027-0.068
						l-4.484,1.061l-2.844,1.572l-1.13,0.626l-3.47,3.327l-2.816,4.3l-1.994,5.123l-1.211,5.94l-0.408,6.756l0.408,6.885l1.204,6.26
						l1.987,5.62l2.789,4.994l3.457,4.178l3.979,3.157l4.512,2.157l5.048,1.143l5.001,0.061l4.471-1.062l3.939-2.204l3.429-3.327
						l2.749-4.321l1.979-5.15l0.109-0.551l1.081-5.429L463.778,105.815z"/>
					<polygon fill="#A8DDE3" points="462.315,118.069 462.206,118.62 460.227,123.771 457.478,128.091 454.049,131.418 
						450.109,133.623 445.639,134.684 440.638,134.623 435.59,133.48 431.078,131.323 427.099,128.166 423.642,123.988 
						420.853,118.994 418.865,113.375 417.661,107.115 417.253,100.229 417.661,93.473 418.872,87.533 420.866,82.41 423.683,78.11 
						427.152,74.783 428.282,74.157 427.221,79.396 426.819,86.159 427.214,93.044 428.411,99.304 430.398,104.924 433.194,109.918 
						436.645,114.089 440.645,117.252 445.136,119.409 450.184,120.545 455.185,120.614 459.655,119.545 					"/>
					<polygon fill="#A8DDE3" points="381.274,109.367 382.689,117.994 382.036,124.301 380.098,129.574 370.449,143.781 
						372.396,138.508 373.042,132.201 371.619,123.573 367.354,116.259 360.454,110.49 351.119,106.489 359.399,104.25 
						365.441,100.188 368.537,95.616 370.103,96.276 377.008,102.053 					"/>
					<polygon fill="#A8DDE3" points="379.424,66.673 380.002,72.605 378.784,80.151 375.09,85.982 368.537,95.616 365.441,100.188 
						369.129,94.357 370.354,86.812 369.775,80.886 368.014,75.586 365.067,70.912 360.944,66.877 355.664,63.475 349.229,60.733 
						341.635,58.63 332.871,57.188 290.756,52.126 300.396,37.919 342.52,42.981 351.283,44.424 358.883,46.52 365.313,49.269 
						370.599,52.67 374.716,56.705 377.654,61.373 					"/>
					<path fill="#A56AAB" d="M371.619,123.573l1.423,8.627l-0.646,6.307l-1.946,5.273l-3.231,4.232l-4.524,3.191l-5.886,2.177
						l-7.267,1.184l-8.682,0.19l-10.083-0.796l-40.021-4.811V52.126l42.115,5.062l8.764,1.442l7.594,2.103l6.436,2.742l5.28,3.402
						l4.123,4.035l2.946,4.674l1.762,5.3l0.579,5.926l-1.226,7.545l-3.688,5.831l-6.042,4.062l-8.28,2.238l9.335,4.001l6.899,5.77
						L371.619,123.573z M345.459,126.227l-0.898-4.525l-0.082-0.497l-2.993-3.858l-4.946-2.694l-6.92-1.531l-2.367-0.279
						l-9.648-1.164v22.807l10.784,1.292l7.376,0.15l5.361-1.585l3.259-3.252L345.459,126.227z M343.233,86.356l-1.021-4.627
						l-0.225-0.279l-2.823-3.368l-5.008-2.599l-6.905-1.49l-0.014-0.007l-9.635-1.157v21.643l8.335,1l7.579,0.224l5.402-1.429
						l3.226-3.103L343.233,86.356z"/>
					<polygon fill="#7161A9" points="344.561,121.702 345.459,126.227 344.384,131.092 341.125,134.344 335.764,135.929 
						328.388,135.779 317.604,134.487 327.252,120.28 338.036,121.573 					"/>
					<polygon fill="#7161A9" points="342.213,81.729 343.233,86.356 342.146,91.167 338.92,94.269 333.518,95.698 325.938,95.474 
						317.604,94.473 327.252,80.267 335.579,81.267 341.988,81.451 					"/>
					<polygon fill="#A8DDE3" points="327.252,112.844 327.252,120.28 317.604,134.487 317.604,111.68 					"/>
					<polygon fill="#A8DDE3" points="327.252,73.994 327.252,80.267 317.604,94.473 317.604,72.83 327.238,73.987 					"/>
					<polygon fill="#19B9AD" points="240.992,42.165 278.815,140.964 269.439,154.762 231.623,55.97 					"/>
					<path fill="#77C9B1" d="M231.623,55.97l37.816,98.792l-28.467-3.416l-7.103-20.82l-34.652-4.164l-3.796-0.456l-7.457,19.071
						l-26.365-3.171l37.898-89.695L231.623,55.97z M227.541,111.857l-5.273-15.56l-5.314-15.629L215.022,75l-12.928,33.802
						L227.541,111.857z"/>
					<polygon fill="#A8DDE3" points="240.992,42.165 231.623,55.97 199.496,52.112 208.864,38.307 					"/>
					<polygon fill="#A8DDE3" points="222.268,96.297 227.541,111.857 202.094,108.802 211.47,94.997 					"/>
					<polygon fill="#156492" points="215.022,75 216.954,80.668 211.47,94.997 202.094,108.802 					"/>
					<polygon fill="#156492" points="199.216,126.363 197.332,131.173 187.963,144.979 195.42,125.907 					"/>
					<polygon fill="#7161A9" points="151.916,49.221 151.916,141.624 142.731,155.157 142.731,62.753 					"/>
					<polygon fill="#A8DDE3" points="151.916,49.221 142.731,62.753 119.162,59.923 128.354,46.39 					"/>
					<polygon fill="#9889C1" points="142.731,62.753 142.731,155.157 110.276,151.258 85.694,100.454 80.775,90.296 76.985,81.219 
						73.814,70.728 75.849,86.159 76.509,98.433 76.509,147.196 52.933,144.366 52.933,51.963 85.531,55.882 113.93,114.694 
						117.305,122.873 121.584,135.575 119.754,122.805 119.162,112.265 119.162,92.983 119.162,59.923 					"/>
					<polygon fill="#7161A9" points="119.754,122.805 121.584,135.575 117.305,122.873 113.93,114.694 85.531,55.882 94.723,42.349 
						119.162,92.983 119.162,112.265 					"/>
					<polygon fill="#A8DDE3" points="94.723,42.349 85.531,55.882 52.933,51.963 62.119,38.437 					"/>
					<polygon fill="#7161A9" points="85.694,100.454 85.694,133.67 76.509,147.196 76.509,98.433 75.849,86.159 73.814,70.728 
						76.985,81.219 80.775,90.296 					"/>
				</g>
			</g>
		</g>
	</g>
</g>
</svg>
