<?xml version="1.0" standalone="no"?>
<!DOCTYPE svg PUBLIC "-//W3C//DTD SVG 20010904//EN"
 "http://www.w3.org/TR/2001/REC-SVG-20010904/DTD/svg10.dtd">
<svg version="1.0" xmlns="http://www.w3.org/2000/svg"
 width="260.000000pt" height="260.000000pt" viewBox="0 0 260.000000 260.000000"
 preserveAspectRatio="xMidYMid meet">
<metadata>
Created by potrace 1.11, written by Peter Selinger 2001-2013
</metadata>
<g transform="translate(0.000000,260.000000) scale(0.100000,-0.100000)"
fill="#000000" stroke="none">
<path d="M418 2488 c-13 -18 -57 -82 -97 -141 l-73 -109 -1 -123 c-1 -76 -5
-121 -11 -118 -5 4 -6 1 0 -8 13 -21 15 -131 1 -122 -6 4 -7 1 -1 -8 13 -20
14 -160 1 -152 -6 4 -7 1 -1 -8 13 -21 13 -429 0 -429 -8 0 -8 -3 0 -8 14 -9
15 -234 1 -225 -6 4 -7 1 -1 -8 13 -21 15 -131 1 -122 -6 4 -7 1 -1 -8 13 -20
14 -160 1 -152 -6 4 -7 1 -1 -8 5 -8 9 -107 10 -221 0 -115 3 -210 6 -213 3
-3 22 -7 44 -9 27 -2 38 -8 36 -17 -3 -11 -1 -12 9 -2 17 17 43 17 33 1 -5 -9
-2 -9 9 1 14 11 17 11 17 0 0 -11 2 -11 10 1 5 8 10 11 10 5 0 -5 27 -11 60
-13 33 -2 70 -5 83 -8 12 -3 47 -7 77 -10 72 -6 83 -8 97 -17 7 -5 13 1 15 15
2 13 8 22 14 21 6 -1 11 4 11 10 0 17 33 67 44 67 5 0 9 7 9 16 0 8 5 12 11 9
6 -4 9 -1 7 6 -1 8 21 49 50 92 29 42 47 77 41 77 -8 0 -7 5 2 17 10 11 10 14
2 9 -16 -9 -17 6 -1 22 9 9 9 12 -1 12 -11 0 -11 3 0 17 8 9 9 14 3 11 -12 -8
-13 270 0 291 6 10 5 12 -2 7 -16 -10 -15 7 1 23 6 8 7 11 1 8 -14 -8 -13 45
1 55 6 5 5 8 -2 8 -7 0 -13 5 -13 11 0 5 5 7 11 3 8 -4 8 -1 1 12 -10 21 -10
120 1 130 4 4 7 -2 7 -14 0 -12 5 -22 10 -22 6 0 10 -8 10 -19 0 -10 6 -24 14
-30 13 -11 53 -105 45 -107 -2 0 4 -9 14 -19 10 -9 16 -24 13 -32 -3 -8 -2
-12 2 -9 12 7 44 -63 36 -77 -4 -7 -3 -8 1 -4 12 10 108 -190 99 -205 -4 -6
-3 -8 2 -5 5 3 29 -36 54 -86 113 -238 193 -397 199 -398 3 -1 17 -2 31 -4 99
-11 126 -17 137 -31 6 -9 14 -11 17 -5 3 5 0 12 -6 15 -7 4 -2 4 12 1 14 -2
35 -5 48 -5 16 0 21 -4 16 -12 -6 -10 -5 -10 8 -1 8 7 18 10 22 6 3 -4 28 -8
54 -9 91 -4 88 -3 72 -14 -20 -13 -4 -13 21 0 10 6 19 7 19 3 0 -4 32 -9 72
-11 53 -2 75 -7 85 -20 12 -16 13 -15 7 3 -6 16 -4 18 6 8 21 -19 63 4 93 52
16 25 33 42 39 39 5 -3 8 2 6 12 -2 12 2 18 10 16 8 -1 11 2 8 7 -4 5 14 39
39 74 25 36 45 71 45 78 0 11 2 11 10 -1 5 -8 10 -10 10 -4 0 5 -5 15 -12 22
-9 9 -9 12 0 12 7 0 12 5 12 11 0 5 -4 8 -9 4 -6 -3 -8 4 -6 15 6 30 15 41 27
34 7 -4 8 -2 4 4 -4 6 -12 9 -19 6 -9 -3 -12 16 -12 71 0 45 4 75 10 75 5 0 3
5 -5 10 -10 6 -11 10 -2 10 6 0 12 5 12 11 0 5 -4 8 -8 5 -10 -6 -8 146 2 162
4 7 12 9 18 6 7 -4 8 -2 4 4 -4 6 -12 9 -19 6 -8 -3 -12 12 -12 51 -1 32 3 55
10 55 5 0 3 5 -5 10 -10 6 -11 10 -2 10 6 0 12 5 12 11 0 5 -4 8 -8 5 -10 -6
-8 146 2 162 4 7 12 9 18 6 7 -4 8 -2 4 4 -4 6 -12 9 -19 6 -8 -3 -12 12 -12
51 -1 32 3 55 10 55 5 0 3 5 -5 10 -10 6 -11 10 -2 10 6 0 12 5 12 11 0 5 -4
8 -8 5 -10 -6 -8 146 2 162 4 7 12 9 18 6 7 -4 8 -2 4 4 -4 6 -12 9 -19 6 -8
-3 -12 12 -12 51 -1 32 3 55 10 55 5 0 3 5 -5 10 -10 6 -11 10 -2 10 6 0 12 5
12 11 0 5 -4 8 -8 5 -10 -6 -8 146 2 162 4 7 12 9 18 6 7 -4 8 -2 4 4 -4 6
-12 9 -19 6 -8 -3 -12 12 -12 51 -1 32 3 55 10 55 5 0 3 5 -5 10 -10 6 -11 10
-2 10 6 0 12 5 12 11 0 5 -4 8 -8 5 -10 -6 -8 146 2 162 4 7 12 9 18 6 7 -4 8
-2 4 4 -4 6 -12 9 -19 6 -8 -3 -13 4 -13 16 0 12 5 19 13 16 7 -3 15 0 19 7 4
7 4 9 -1 5 -4 -4 -14 -3 -22 3 -11 10 -10 14 4 25 12 9 13 13 4 12 -7 -2 -16
3 -19 11 -3 10 0 11 9 5 12 -7 12 -5 0 9 -13 16 -8 22 14 17 5 -1 1 8 -10 20
-11 12 -19 24 -17 26 8 13 -1 24 -20 23 -13 -1 -43 1 -68 5 -25 3 -65 8 -90
11 -45 6 -85 13 -85 15 0 1 -138 12 -185 13 l-44 2 -93 -137 -93 -136 -1 -293
c0 -210 -4 -298 -12 -308 -9 -12 -9 -13 1 -7 9 5 12 -3 12 -31 -1 -31 -3 -35
-11 -20 -5 9 -7 22 -3 29 4 7 3 8 -4 4 -7 -4 -14 3 -18 19 -3 14 -11 25 -16
25 -5 0 -8 8 -6 18 2 9 -2 22 -10 27 -7 6 -14 17 -16 25 -1 8 -8 26 -16 40
-39 70 -59 114 -54 122 3 4 1 8 -4 8 -10 0 -38 60 -34 73 1 4 -3 7 -10 7 -6 0
-9 3 -5 6 3 4 -1 13 -9 21 -8 8 -12 19 -9 24 4 5 0 9 -7 9 -9 0 -9 3 2 10 13
9 13 10 0 10 -9 0 -29 29 -48 69 -35 77 -38 86 -20 75 7 -5 8 -3 4 5 -5 7 -11
10 -14 6 -7 -6 -170 321 -171 343 -1 6 -5 12 -11 12 -5 0 -10 6 -10 14 0 20
-10 25 -66 31 -107 13 -131 15 -179 20 -27 3 -66 8 -85 11 -19 3 -55 7 -80 10
-25 2 -54 6 -66 8 -12 2 -57 7 -100 11 -43 3 -86 8 -95 11 -10 3 -26 -8 -41
-28z"/>
<path d="M1195 2341 c-3 -5 -2 -12 3 -15 5 -3 9 1 9 9 0 17 -3 19 -12 6z"/>
<path d="M2330 1860 c0 -5 5 -10 11 -10 5 0 7 5 4 10 -3 6 -8 10 -11 10 -2 0
-4 -4 -4 -10z"/>
<path d="M2330 1540 c0 -5 5 -10 11 -10 5 0 7 5 4 10 -3 6 -8 10 -11 10 -2 0
-4 -4 -4 -10z"/>
<path d="M2330 1220 c0 -5 5 -10 11 -10 5 0 7 5 4 10 -3 6 -8 10 -11 10 -2 0
-4 -4 -4 -10z"/>
<path d="M950 1081 c0 -6 4 -12 8 -15 5 -3 9 1 9 9 0 8 -4 15 -9 15 -4 0 -8
-4 -8 -9z"/>
<path d="M2330 900 c0 -5 5 -10 11 -10 5 0 7 5 4 10 -3 6 -8 10 -11 10 -2 0
-4 -4 -4 -10z"/>
<path d="M953 865 c0 -8 4 -12 9 -9 5 3 6 10 3 15 -9 13 -12 11 -12 -6z"/>
<path d="M953 785 c0 -8 4 -12 9 -9 5 3 6 10 3 15 -9 13 -12 11 -12 -6z"/>
<path d="M2330 580 c0 -5 5 -10 11 -10 5 0 7 5 4 10 -3 6 -8 10 -11 10 -2 0
-4 -4 -4 -10z"/>
<path d="M915 440 c3 -5 8 -10 11 -10 2 0 4 5 4 10 0 6 -5 10 -11 10 -5 0 -7
-4 -4 -10z"/>
<path d="M870 400 c0 -5 5 -10 11 -10 5 0 7 5 4 10 -3 6 -8 10 -11 10 -2 0 -4
-4 -4 -10z"/>
<path d="M833 315 c0 -8 4 -12 9 -9 5 3 6 10 3 15 -9 13 -12 11 -12 -6z"/>
<path d="M2306 318 c3 -5 10 -6 15 -3 13 9 11 12 -6 12 -8 0 -12 -4 -9 -9z"/>
<path d="M2286 278 c3 -5 10 -6 15 -3 13 9 11 12 -6 12 -8 0 -12 -4 -9 -9z"/>
<path d="M533 245 c0 -8 4 -12 9 -9 5 3 6 10 3 15 -9 13 -12 11 -12 -6z"/>
<path d="M446 242 c-3 -5 1 -9 9 -9 8 0 12 4 9 9 -3 4 -7 8 -9 8 -2 0 -6 -4
-9 -8z"/>
<path d="M2250 219 c0 -5 5 -7 10 -4 6 3 10 8 10 11 0 2 -4 4 -10 4 -5 0 -10
-5 -10 -11z"/>
<path d="M1475 120 c3 -5 8 -10 11 -10 2 0 4 5 4 10 0 6 -5 10 -11 10 -5 0 -7
-4 -4 -10z"/>
<path d="M1795 89 c-4 -6 -5 -12 -2 -15 2 -3 7 2 10 11 7 17 1 20 -8 4z"/>
</g>
</svg>
